# xmcd
#
# Track frame offsets:
#	150
#	19273
#	34168
#	45450
#	63513
#	80083
#	98875
#	126582
#	141075
#	152631
#	167305
#	180184
#	200473
#	218910
#	233660
#
# Disc length: 3344
#
# Revision: 2
# Processed by: cddbd v1.5.1PL0 Copyright (c) Steve Scherf et al.
# Submitted via: audiograbber 1.81.01
# Normalized: r1:DSETVAR1
#
DISCID=c60d0e0f
DTITLE=Various Artist - Beatles Blues
DYEAR=2001
DGENRE=Blues
TTITLE0=Stan Webb - She Loves You
TTITLE1=Earl Green - From Me To You
TTITLE2=Fred James - I'm Down
TTITLE3=Charles Walker - Don't Let Me Down
TTITLE4=Paul Lamb - Norwegian Wood
TTITLE5=Johnny Jones - Come Together
TTITLE6=Stan Webb - I Saw Her Standing There
TTITLE7=Earl Green - Run For Your Life
TTITLE8=Al Garner - The Word
TTITLE9=Ruby Turner - You Can't Do That
TTITLE10=Earl Gaines - Oh Darling
TTITLE11=Fred James - Why Don't We Do It In The Road
TTITLE12=Mo Indigo - I Call Your Name
TTITLE13=Paul Lamb - Get Back
TTITLE14=Roscoe Shelton - Let It Be
EXTD=Indigo Records (IGOX) 539\n© 2001
EXTT0=
EXTT1=
EXTT2=
EXTT3=
EXTT4=
EXTT5=
EXTT6=
EXTT7=
EXTT8=
EXTT9=
EXTT10=
EXTT11=
EXTT12=
EXTT13=
EXTT14=
PLAYORDER=
